<svg width="22" height="19" viewBox="0 0 22 19" fill="none" xmlns="http://www.w3.org/2000/svg">
<g clip-path="url(#clip0)">
<path d="M3.95925 8.48591L1.25684 11.3149L8.69159 19.0979L22.0002 5.16591L19.2988 2.33691L8.69159 13.4389L3.95925 8.48591Z" fill="#4D4D4D"/>
<path d="M18 20C18 20.542 17.542 21 17 21H0C-0.542 21 -1 20.542 -1 20V3C-1 2.458 -0.542 2 0 2H16.908L18.493 0.415C18.041 0.146542 17.5257 0.00329969 17 0H0C-1.65 0 -3 1.35 -3 3V20C-3 21.65 -1.65 23 0 23H17C18.65 23 20 21.65 20 20V10.171L18 12.171V20Z" fill="#4D4D4D"/>
</g>
<defs>
<clipPath id="clip0">
<rect width="1440" height="3455" fill="white" transform="translate(-972 -2296)"/>
</clipPath>
</defs>
</svg>
